<svg width="36" height="25" viewBox="0 0 36 25" fill="none" xmlns="http://www.w3.org/2000/svg">
<rect x="-0.000488281" y="0.895508" width="36" height="24" rx="2.26957" fill="#306FC8"/>
<mask id="mask0_430_8305" style="mask-type:alpha" maskUnits="userSpaceOnUse" x="-1" y="0" width="37" height="25">
<rect x="-0.000488281" y="0.895508" width="36" height="24" rx="2.26957" fill="url(#paint0_linear_430_8305)"/>
</mask>
<g mask="url(#mask0_430_8305)">
<path d="M15.5799 18.4716V14.9778L14.0293 16.6985L15.5799 18.4716Z" fill="white"/>
<path d="M9.08105 15.416V16.2025L11.2982 16.1977V17.0986H9.08105V17.9613H11.5667L12.7239 16.6839L11.613 15.416H9.08105Z" fill="white"/>
<path d="M18.5007 8.79561C18.6303 8.71935 18.709 8.56682 18.709 8.38093C18.709 8.19504 18.6257 8.06158 18.5007 7.99008C18.3804 7.91858 18.1998 7.91382 18.0193 7.91382H16.7695V8.88617H18.0054C18.1998 8.88617 18.3618 8.87664 18.5007 8.79561Z" fill="white"/>
<path d="M1.86035 9.48181H3.24436L2.55004 7.74683L1.86035 9.48181Z" fill="white"/>
<path d="M17.913 15.416H16.5938V16.5123H17.9037C18.2879 16.5123 18.5286 16.3216 18.5286 15.9451C18.524 15.5685 18.274 15.416 17.913 15.416Z" fill="white"/>
<path d="M2.1195 11.2504H2.98972L3.38316 12.2275H6.78533V11.4839L7.09083 12.2275H8.84977L9.15528 11.4744V12.2275H17.6075V10.6355H17.7741C17.8944 10.6355 17.9268 10.6498 17.9268 10.8452V12.2275H22.2964V11.8509C22.6436 12.0464 23.1898 12.2275 23.9211 12.2275H25.7588L26.1569 11.2504H27.0271L27.4205 12.2275H30.9523V11.3028L31.4939 12.2275H34.3313V6.14551H31.5263V6.86047L31.1236 6.14551H28.2398V6.86047L27.888 6.14551H23.9906C23.3333 6.14551 22.7547 6.23607 22.2964 6.49346V6.14551H19.6117V6.49346C19.297 6.2313 18.9035 6.14551 18.4592 6.14551H8.63222L7.96567 7.71367L7.29913 6.14551H4.20709V6.86047L3.8553 6.14551H1.21689L-0.000488281 9.02921V12.2275H1.72605L2.1195 11.2504ZM22.4862 7.51348C22.8102 7.16553 23.3287 7.00347 24.0276 7.00347H24.995V7.93769H24.0461C23.6712 7.93769 23.4629 7.99489 23.2639 8.19985C23.088 8.38097 22.9676 8.72892 22.9676 9.1865C22.9676 9.65361 23.0556 9.9825 23.2546 10.2113C23.4027 10.3829 23.6851 10.4353 23.9582 10.4353H24.4118L25.8375 7.00347H27.3465L29.0637 11.1312V7.00347H30.6098L32.3872 10.0397V7.00347H33.4287V11.3695H31.9845L30.0728 8.09975V11.3695H28.013L27.6242 10.3924H25.5181L25.1293 11.3695H23.9535C23.4583 11.3695 22.8334 11.2504 22.4816 10.8834C22.1252 10.5116 21.9446 10.0111 21.9446 9.21987C21.9446 8.57163 22.0557 7.98059 22.4862 7.51348ZM20.4125 7.00347H21.4494V11.3695H20.4125V7.00347ZM15.7606 7.00347H18.0935C18.6073 7.00347 18.9868 7.02253 19.3109 7.21319C19.6349 7.40862 19.8339 7.6946 19.8339 8.18078C19.8339 8.87191 19.3803 9.2294 19.1118 9.33903C19.334 9.42482 19.5238 9.58211 19.6117 9.71081C19.7552 9.92053 19.7784 10.1207 19.7784 10.502V11.3695H18.76V10.8166C18.76 10.5592 18.7832 10.1779 18.5934 9.97296C18.4499 9.81567 18.2277 9.78231 17.8574 9.78231H16.7696V11.3695H15.7559V7.00347H15.7606ZM11.678 7.00347H15.057V7.91386H12.687V8.70032H14.9968V9.59641H12.687V10.4591L15.057 10.4544V11.3648H11.678V7.00347ZM1.11042 11.3695H0.00876932L1.81863 7.00347H3.32762L5.0449 11.1312V7.00347H6.70201L8.02122 9.96343L9.23859 7.00347H10.9235V11.3695H9.88663V7.95199L8.4193 11.3695H7.53057L6.05861 7.94722V11.3695H3.99416L3.60535 10.3924H1.49924L1.11042 11.3695Z" fill="white"/>
<path d="M26.5686 7.74683L25.8789 9.48181H27.2583L26.5686 7.74683Z" fill="white"/>
<path d="M33.7572 15.5162C33.6508 15.5877 33.6045 15.6926 33.6045 15.8308C33.6045 15.9928 33.6971 16.1072 33.8267 16.1549C33.9285 16.193 34.0442 16.2026 34.2155 16.2026L34.7571 16.2169C35.3171 16.2312 35.6875 16.3265 35.9143 16.5696C35.9467 16.603 35.9744 16.6363 35.9976 16.6697V15.4399H34.1599C33.9794 15.4399 33.8544 15.4495 33.7572 15.5162Z" fill="white"/>
<path d="M34.6321 18.867H32.6787V17.9327H34.6228C34.8126 17.9327 34.9468 17.9041 35.0302 17.8279C35.0996 17.7611 35.1505 17.6658 35.1505 17.5419C35.1505 17.4132 35.0996 17.3131 35.0255 17.2511C34.9515 17.1844 34.845 17.1558 34.6737 17.1558C33.7295 17.1272 32.5399 17.1892 32.5399 15.8021C32.5399 15.1777 32.924 14.5057 33.9887 14.5057H36.0022V13.6477H34.1275C33.5675 13.6477 33.1462 13.7812 32.8592 13.9957V13.6477H30.0959C29.6561 13.6477 29.1284 13.7573 28.8831 13.9957V13.6477H23.9349V13.9957C23.5415 13.7097 22.8796 13.6477 22.5648 13.6477H19.3015V13.9957C18.9914 13.6858 18.3063 13.6477 17.8851 13.6477H14.2283L13.3905 14.5819L12.6129 13.6477H7.16016V19.7297H12.5157L13.372 18.7812L14.1867 19.7249L17.4824 19.7297V18.295H17.811C18.2461 18.295 18.7646 18.2855 19.2135 18.0853V19.7297H21.9445V18.1377H22.0788C22.2454 18.1377 22.2593 18.152 22.2593 18.3141V19.7297H30.5217C31.0401 19.7297 31.6002 19.5915 31.9057 19.3436V19.7297H34.5256C35.0672 19.7297 35.6041 19.6487 36.0115 19.4485V18.3188C35.7476 18.6906 35.2847 18.867 34.6321 18.867ZM17.8481 17.4084H16.589V18.867H14.6172L13.3766 17.4323L12.0806 18.8717H8.0674V14.5057H12.1407L13.3813 15.9404L14.6727 14.5057H17.9129C18.709 14.5057 19.6116 14.744 19.6116 15.9499C19.607 17.1558 18.7322 17.4084 17.8481 17.4084ZM23.9396 17.213C24.083 17.4227 24.1062 17.6229 24.1108 18.0042V18.867H23.0925V18.3141C23.0925 18.0567 23.1156 17.6754 22.9258 17.4704C22.7777 17.3131 22.5602 17.2797 22.1899 17.2797H21.1021V18.867H20.0884V14.5009H22.4213C22.9351 14.5009 23.31 14.52 23.6387 14.7154C23.9627 14.9108 24.1617 15.1968 24.1617 15.683C24.1617 16.3741 23.7081 16.7316 23.4443 16.8412C23.6665 16.927 23.8562 17.0843 23.9396 17.213ZM28.1008 15.4161H25.7355V16.2025H28.0499V17.1034H25.7355V17.9661H28.1055V18.8717H24.7264V14.5057H28.1055V15.4161H28.1008ZM30.6745 18.867H28.7026V17.9327H30.6652C30.855 17.9327 30.9892 17.9041 31.0725 17.8279C31.142 17.7611 31.1929 17.6658 31.1929 17.5419C31.1929 17.4132 31.142 17.3131 31.0679 17.2511C30.9938 17.1844 30.8874 17.1558 30.7161 17.1558C29.7718 17.1272 28.5822 17.1892 28.5822 15.8021C28.5822 15.173 28.9664 14.5057 30.031 14.5057H32.0585V15.4399H30.2023C30.0172 15.4399 29.8968 15.4447 29.795 15.5114C29.6885 15.5829 29.6469 15.6877 29.6469 15.826C29.6469 15.988 29.7394 16.1024 29.869 16.1501C29.9755 16.1882 30.0866 16.1978 30.2579 16.1978L30.7994 16.2121C31.3595 16.2264 31.7298 16.3217 31.9566 16.5648C32.1557 16.784 32.2621 17.0366 32.2621 17.4895C32.2668 18.4237 31.702 18.867 30.6745 18.867Z" fill="white"/>
<path d="M22.8337 15.4875C22.7134 15.4208 22.5282 15.416 22.3523 15.416H21.1025V16.3884H22.3384C22.5328 16.3884 22.6995 16.3836 22.8337 16.3026C22.9633 16.2263 23.042 16.0738 23.042 15.8879C23.0374 15.6972 22.9587 15.5638 22.8337 15.4875Z" fill="white"/>
</g>
<defs>
<linearGradient id="paint0_linear_430_8305" x1="17.9995" y1="0.895508" x2="17.9995" y2="24.8955" gradientUnits="userSpaceOnUse">
<stop stop-color="#1B8ABA"/>
<stop offset="1" stop-color="#005D9C"/>
</linearGradient>
</defs>
</svg>
