<svg width="36" height="25" viewBox="0 0 36 25" fill="none" xmlns="http://www.w3.org/2000/svg">
<rect y="0.895752" width="36" height="24" rx="2.26957" fill="#F8F8F8"/>
<mask id="mask0_430_8306" style="mask-type:alpha" maskUnits="userSpaceOnUse" x="0" y="0" width="36" height="25">
<rect y="0.895752" width="36" height="24" rx="2.26957" fill="#F9F9F9"/>
</mask>
<g mask="url(#mask0_430_8306)">
<path d="M10.4062 24.8958H34.8187C35.4656 24.8958 36 24.3391 36 23.6653V15.052C33.6656 16.6047 24.8344 21.9368 10.4062 24.8958Z" fill="#F58220"/>
</g>
<path d="M5.55947 10.6255H4.31982V15.1353H5.5529C6.20858 15.1353 6.68205 14.9742 7.09764 14.6147C7.59151 14.189 7.88359 13.5473 7.88359 12.8835C7.88373 11.5527 6.92905 10.6255 5.55947 10.6255ZM6.54603 14.0134C6.28063 14.263 5.93606 14.3718 5.3904 14.3718H5.1638V11.3897H5.3904C5.93606 11.3897 6.26715 11.4913 6.54603 11.7544C6.83812 12.0252 7.01376 12.4451 7.01376 12.877C7.01376 13.31 6.83812 13.7426 6.54603 14.0134Z" fill="#231F20"/>
<path d="M9.11699 10.6255H8.27246V15.1353H9.11699V10.6255Z" fill="#231F20"/>
<path d="M11.1819 12.3562C10.6751 12.1609 10.5263 12.0321 10.5263 11.7884C10.5263 11.5043 10.7914 11.2886 11.1554 11.2886C11.4085 11.2886 11.6163 11.3968 11.8364 11.6537L12.2782 11.0511C11.9151 10.7202 11.4806 10.551 11.006 10.551C10.24 10.551 9.65565 11.1052 9.65565 11.8433C9.65565 12.4646 9.92768 12.7827 10.7208 13.08C11.0515 13.2014 11.2197 13.2823 11.3047 13.3368C11.4734 13.4515 11.5579 13.6141 11.5579 13.8034C11.5579 14.1688 11.279 14.4395 10.9022 14.4395C10.4994 14.4395 10.175 14.2296 9.98058 13.838L9.43506 14.3853C9.82416 14.9802 10.2914 15.2439 10.934 15.2439C11.8116 15.2439 12.4272 14.6361 12.4272 13.7631C12.4271 13.0465 12.1425 12.7221 11.1819 12.3562Z" fill="#231F20"/>
<path d="M12.6934 12.8836C12.6934 14.2092 13.6927 15.2371 14.9786 15.2371C15.3422 15.2371 15.6535 15.1626 16.0374 14.9743V13.9388C15.6998 14.2908 15.4008 14.4327 15.018 14.4327C14.1674 14.4327 13.5638 13.7903 13.5638 12.8771C13.5638 12.0112 14.1866 11.3281 14.9788 11.3281C15.3816 11.3281 15.6864 11.4778 16.0376 11.8356V10.8005C15.6669 10.6045 15.3621 10.5234 14.9987 10.5234C13.719 10.5237 12.6934 11.5724 12.6934 12.8836Z" fill="#231F20"/>
<path d="M22.7334 13.6548L21.5788 10.6255H20.6562L22.4937 15.2511H22.9481L24.8184 10.6255H23.903L22.7334 13.6548Z" fill="#231F20"/>
<path d="M25.2002 15.1353H27.5952V14.372H26.044V13.1546H27.538V12.3907H26.044V11.3897H27.5952V10.6255H25.2002V15.1353Z" fill="#231F20"/>
<path d="M30.9392 11.9569C30.9392 11.1126 30.3809 10.6255 29.4069 10.6255H28.1548V15.1353H28.9983V13.3237H29.1084L30.2773 15.1354H31.3158L29.953 13.2354C30.5889 13.1007 30.9392 12.6475 30.9392 11.9569ZM29.245 12.7018H28.9983V11.3359H29.2583C29.7843 11.3359 30.0702 11.5654 30.0702 12.0043C30.0702 12.4577 29.7844 12.7018 29.245 12.7018Z" fill="#231F20"/>
<path d="M18.6166 15.2953C19.8887 15.2953 20.9198 14.2212 20.9198 12.8962C20.9198 11.5712 19.8887 10.4971 18.6166 10.4971C17.3446 10.4971 16.3135 11.5712 16.3135 12.8962C16.3135 14.2212 17.3446 15.2953 18.6166 15.2953Z" fill="url(#paint0_linear_430_8306)"/>
<path opacity="0.65" d="M18.6166 15.2953C19.8887 15.2953 20.9198 14.2212 20.9198 12.8962C20.9198 11.5712 19.8887 10.4971 18.6166 10.4971C17.3446 10.4971 16.3135 11.5712 16.3135 12.8962C16.3135 14.2212 17.3446 15.2953 18.6166 15.2953Z" fill="url(#paint1_linear_430_8306)"/>
<path d="M31.4782 10.7949C31.4782 10.7158 31.4259 10.6726 31.3341 10.6726H31.2119V11.069H31.3027V10.9152L31.4092 11.069H31.52L31.3949 10.9056C31.4487 10.8906 31.4782 10.8499 31.4782 10.7949ZM31.3181 10.8491H31.3028V10.7454H31.3191C31.364 10.7454 31.3874 10.7623 31.3874 10.7964C31.3874 10.8314 31.3637 10.8491 31.3181 10.8491Z" fill="#231F20"/>
<path d="M31.3524 10.5247C31.1677 10.5247 31.021 10.6782 31.021 10.8702C31.021 11.0621 31.1693 11.2159 31.3524 11.2159C31.5324 11.2159 31.6799 11.0604 31.6799 10.8702C31.6799 10.6808 31.5324 10.5247 31.3524 10.5247ZM31.351 11.1541C31.2056 11.1541 31.0866 11.028 31.0866 10.8707C31.0866 10.7129 31.204 10.5869 31.351 10.5869C31.4957 10.5869 31.6137 10.7158 31.6137 10.8707C31.6137 11.0266 31.4958 11.1541 31.351 11.1541Z" fill="#231F20"/>
<defs>
<linearGradient id="paint0_linear_430_8306" x1="19.7956" y1="14.8189" x2="18.1068" y2="12.2806" gradientUnits="userSpaceOnUse">
<stop stop-color="#F89F21"/>
<stop offset="0.2502" stop-color="#F79A23"/>
<stop offset="0.5331" stop-color="#F78E22"/>
<stop offset="0.6196" stop-color="#F68721"/>
<stop offset="0.7232" stop-color="#F48220"/>
<stop offset="1" stop-color="#F27623"/>
</linearGradient>
<linearGradient id="paint1_linear_430_8306" x1="19.5436" y1="14.7836" x2="17.0585" y2="10.1206" gradientUnits="userSpaceOnUse">
<stop stop-color="#F68721" stop-opacity="0"/>
<stop offset="0.3587" stop-color="#E27027" stop-opacity="0.2704"/>
<stop offset="0.703" stop-color="#D4612C" stop-opacity="0.5299"/>
<stop offset="0.9816" stop-color="#D15D2D" stop-opacity="0.74"/>
</linearGradient>
</defs>
</svg>
