<svg width="497" height="87" viewBox="0 0 497 87" fill="none" xmlns="http://www.w3.org/2000/svg">
<path d="M11.6211 31.0543H21.1504C23.268 31.0543 24.4489 31.1357 25.7928 31.3394V27.9186C24.2861 28.1222 23.1051 28.2037 21.1504 28.2037H11.6211V17.697H23.3494C25.5078 17.697 26.6887 17.7785 28.0326 17.9821V14.5206C26.4851 14.7242 25.3449 14.8056 23.3494 14.8056H12.5577C10.603 14.8056 9.50345 14.7649 8.07812 14.6835C8.32247 16.2717 8.40391 17.5748 8.40391 19.3259V40.9908C8.40391 43.1084 8.32247 44.3709 8.07812 45.7555H11.9469C11.7025 44.2894 11.6211 43.1899 11.6211 40.9908V31.0543Z" fill="#231F20"/>
<path d="M58.6796 45.7555C60.9601 45.7555 62.1003 45.8369 63.4035 46.0405V42.579C61.8153 42.7827 60.7157 42.8641 58.6796 42.8641H45.8517V19.611C45.8517 17.3712 45.9331 16.3124 46.1775 14.8056H42.3494C42.5938 16.231 42.6752 17.4934 42.6752 19.611V41.0315C42.6752 43.027 42.5938 44.3301 42.3494 45.8776C43.7748 45.7962 44.915 45.7555 46.7883 45.7555H58.6796Z" fill="#231F20"/>
<path d="M97.5934 42.6198C96.0866 42.8234 94.9463 42.9048 93.0731 42.9048H80.1637V30.9321H90.874C92.9916 30.9321 94.0504 31.0136 95.435 31.2172V27.7964C93.8875 28 92.6658 28.0815 90.874 28.0815H80.1637V17.6563H92.7065C94.7427 17.6563 95.8422 17.7377 97.2676 17.9413V14.5206C95.883 14.7242 94.4984 14.8056 92.7065 14.8056H81.1004C79.1456 14.8056 78.0461 14.7649 76.6208 14.6835C76.8651 16.4753 76.9466 17.5748 76.9466 19.3259V41.0315C76.9466 43.1084 76.8651 44.3301 76.6208 45.8776C78.0054 45.7962 79.1456 45.7555 81.1004 45.7555H93.0323C95.1907 45.7555 96.2902 45.8369 97.5934 46.0405V42.6198Z" fill="#231F20"/>
<path d="M134.024 14.8056C134.268 16.231 134.349 17.4527 134.349 19.4888V34.3936C134.349 36.9999 133.616 39.2804 132.313 40.8687C130.807 42.6198 128.322 43.5971 125.187 43.5971C119.363 43.5971 116.024 40.2578 116.024 34.3936V19.4888C116.024 17.3305 116.105 16.1088 116.35 14.8056H112.522C112.766 16.231 112.847 17.4119 112.847 19.4888V34.5158C112.847 38.0995 113.866 41.0315 115.861 43.1084C117.897 45.2668 121.155 46.407 125.146 46.407C129.096 46.407 132.354 45.2668 134.39 43.1899C136.426 41.0723 137.526 38.0995 137.526 34.5158V19.4074C137.526 17.3712 137.607 16.231 137.852 14.8056H134.024Z" fill="#231F20"/>
<path d="M178.756 45.7555C178.186 44.7781 177.616 43.5564 176.923 41.9682C175.661 39.1583 174.683 37.0406 173.706 35.1266C172.24 32.2353 171.222 31.1357 169.552 30.6471C171.751 30.1584 172.769 29.6697 173.95 28.6109C175.62 27.1856 176.394 25.2308 176.394 22.6245C176.394 17.5748 173.136 14.8056 167.231 14.8056H158.272C156.399 14.8056 155.258 14.7649 153.833 14.6835C154.077 16.3124 154.159 17.6156 154.159 19.3667V41.1944C154.159 43.1899 154.077 44.2894 153.833 45.7555H157.62C157.376 44.2894 157.295 43.2306 157.295 41.1537V31.6244H164.828C168.086 31.6244 169.674 33.2126 172.036 38.7918C173.747 42.8641 174.317 44.5338 174.439 45.7555H178.756ZM157.295 28.8145V17.6156H167.19C171.059 17.6156 173.095 19.4888 173.095 22.9503C173.095 24.7014 172.607 26.0453 171.548 27.0634C170.448 28.1629 168.779 28.8145 166.946 28.8145H157.295Z" fill="#231F20"/>
<path d="M214.453 22.3395C214.005 20.2626 213.598 19.2445 212.662 18.0228C210.829 15.5794 207.693 14.2762 203.662 14.2762C197.35 14.2762 193.236 17.5748 193.236 22.706C193.236 25.5566 194.499 27.715 197.024 29.1403C198.408 29.914 199.997 30.4842 202.562 31.0136C207.49 32.1131 207.938 32.2353 209.282 33.009C210.829 33.8642 211.643 35.371 211.643 37.3664C211.643 41.1537 208.711 43.4342 203.865 43.4342C200.852 43.4342 198.408 42.4161 197.064 40.6243C196.209 39.5248 195.924 38.5474 195.802 36.5927L192.259 37.0406C192.666 39.7284 193.114 40.9908 194.173 42.4161C196.046 44.941 199.426 46.2849 203.987 46.2849C210.992 46.2849 214.942 43.027 214.942 37.285C214.942 32.5611 212.336 30.0769 205.82 28.6923C201.137 27.6743 201.096 27.6743 199.997 27.2263C197.594 26.2489 196.454 24.7422 196.454 22.6245C196.454 19.3259 199.386 17.0862 203.58 17.0862C206.227 17.0862 208.304 17.9006 209.607 19.4481C210.381 20.3848 210.707 21.1992 211.033 22.8282L214.453 22.3395Z" fill="#231F20"/>
<path d="M253.831 41.0315C253.831 43.0677 253.75 44.2894 253.505 45.8776C254.931 45.7962 256.03 45.7555 257.985 45.7555H264.867C268.939 45.7555 272.32 44.5338 274.763 42.1311C277.573 39.4026 279.12 35.1674 279.12 30.0769C279.12 20.344 273.948 14.8056 264.867 14.8056H257.985C256.03 14.8056 254.931 14.7649 253.505 14.6835C253.75 16.3939 253.831 17.5748 253.831 19.3259V41.0315ZM257.008 42.9048V17.6563H264.949C268.288 17.6563 270.813 18.5522 272.605 20.4255C274.763 22.5838 275.822 25.8417 275.822 30.0769C275.822 34.2715 274.641 37.7329 272.401 40.0135C270.568 41.9682 268.003 42.9048 264.786 42.9048H257.008Z" fill="#231F20"/>
<path d="M315.112 42.6198C313.605 42.8234 312.465 42.9048 310.592 42.9048H297.683V30.9321H308.393C310.51 30.9321 311.569 31.0136 312.954 31.2172V27.7964C311.406 28 310.185 28.0815 308.393 28.0815H297.683V17.6563H310.225C312.262 17.6563 313.361 17.7377 314.786 17.9413V14.5206C313.402 14.7242 312.017 14.8056 310.225 14.8056H298.619C296.665 14.8056 295.565 14.7649 294.14 14.6835C294.384 16.4753 294.465 17.5748 294.465 19.3259V41.0315C294.465 43.1084 294.384 44.3301 294.14 45.8776C295.524 45.7962 296.665 45.7555 298.619 45.7555H310.551C312.71 45.7555 313.809 45.8369 315.112 46.0405V42.6198Z" fill="#231F20"/>
<path d="M378.665 22.6653C377.687 20.1404 376.914 18.9187 375.488 17.5341C373.289 15.335 370.194 14.2355 366.366 14.2355C362.497 14.2355 359.402 15.4165 357.041 17.697C354.027 20.6698 352.398 25.1087 352.398 30.362C352.398 35.4524 353.946 39.8913 356.796 42.7419C359.117 45.1039 362.416 46.3256 366.325 46.3256C370.887 46.3256 374.592 44.6559 376.873 41.6017C377.85 40.2985 378.38 39.1583 379.072 36.7556L375.692 35.9411C375.325 37.8144 374.918 38.8325 374.063 40.0135C372.393 42.2125 369.665 43.4342 366.448 43.4342C359.891 43.4342 355.697 38.3031 355.697 30.2398C355.697 22.1359 359.85 17.0862 366.448 17.0862C369.42 17.0862 371.864 18.1042 373.493 20.0182C374.348 20.9956 374.796 21.8508 375.407 23.6019L378.665 22.6653Z" fill="#231F20"/>
<path d="M420.808 45.7555C420.197 44.6967 419.667 43.5157 418.649 41.0723L409.527 18.5929C408.509 16.1088 408.306 15.5794 408.143 14.8056H404.03C403.826 15.7423 403.5 16.6789 402.726 18.5929L393.604 41.0723C392.505 43.8007 392.22 44.4116 391.405 45.7555H395.641C395.926 44.3301 396.292 43.1492 396.903 41.6017L399.021 36.3483H413.233L415.351 41.6017C415.839 42.8641 416.287 44.2894 416.613 45.7555H420.808ZM412.256 33.5384H399.998L405.211 20.0997C405.292 19.9368 405.414 19.4888 405.659 18.8373C405.74 18.5522 405.903 18.1042 406.107 17.4934C406.88 19.7332 406.88 19.7739 407.002 20.0997L412.256 33.5384Z" fill="#231F20"/>
<path d="M437.83 31.0543H447.359C449.477 31.0543 450.658 31.1357 452.002 31.3394V27.9186C450.495 28.1222 449.314 28.2037 447.359 28.2037H437.83V17.697H449.558C451.717 17.697 452.898 17.7785 454.242 17.9821V14.5206C452.694 14.7242 451.554 14.8056 449.558 14.8056H438.767C436.812 14.8056 435.712 14.7649 434.287 14.6835C434.532 16.2717 434.613 17.5748 434.613 19.3259V40.9908C434.613 43.1084 434.532 44.3709 434.287 45.7555H438.156C437.912 44.2894 437.83 43.1899 437.83 40.9908V31.0543Z" fill="#231F20"/>
<path d="M489.531 42.6198C488.024 42.8234 486.884 42.9048 485.011 42.9048H472.101V30.9321H482.812C484.929 30.9321 485.988 31.0136 487.373 31.2172V27.7964C485.825 28 484.604 28.0815 482.812 28.0815H472.101V17.6563H484.644C486.68 17.6563 487.78 17.7377 489.205 17.9413V14.5206C487.821 14.7242 486.436 14.8056 484.644 14.8056H473.038C471.083 14.8056 469.984 14.7649 468.559 14.6835C468.803 16.4753 468.884 17.5748 468.884 19.3259V41.0315C468.884 43.1084 468.803 44.3301 468.559 45.8776C469.943 45.7962 471.083 45.7555 473.038 45.7555H484.97C487.128 45.7555 488.228 45.8369 489.531 46.0405V42.6198ZM471.939 8.69712L481.223 13.8283L482.201 12.6066L474.178 5.88721L471.939 8.69712Z" fill="#231F20"/>
<path d="M66.7812 72.4429H61.6167V76.2246H66.5646V77.6906H61.6167V82.6385H60.0674V70.9768H66.7812V72.4429Z" fill="black"/>
<path d="M86.8664 81.1725H91.8976V82.6385H85.3171V70.9768H86.8664V81.1725Z" fill="black"/>
<path d="M119.01 81.0892C117.844 82.2665 116.417 82.8551 114.728 82.8551C113.04 82.8551 111.613 82.2665 110.447 81.0892C109.281 79.9119 108.698 78.4848 108.698 76.8077C108.698 75.1195 109.281 73.6923 110.447 72.5262C111.613 71.3489 113.04 70.7603 114.728 70.7603C116.417 70.7603 117.844 71.3489 119.01 72.5262C120.187 73.6923 120.776 75.1195 120.776 76.8077C120.776 78.4848 120.187 79.9119 119.01 81.0892ZM111.513 80.0396C112.379 80.9059 113.451 81.3391 114.728 81.3391C116.006 81.3391 117.072 80.9059 117.927 80.0396C118.793 79.1622 119.227 78.0849 119.227 76.8077C119.227 75.5193 118.793 74.442 117.927 73.5757C117.072 72.6983 116.006 72.2596 114.728 72.2596C113.451 72.2596 112.379 72.6983 111.513 73.5757C110.658 74.442 110.23 75.5193 110.23 76.8077C110.23 78.0849 110.658 79.1622 111.513 80.0396Z" fill="black"/>
<path d="M141.293 82.6385L137.944 70.9768H139.577L142.243 80.5728L145.075 70.9768H146.641L149.473 80.5728L152.138 70.9768H153.771L150.423 82.6385H148.623L145.858 73.3258L143.092 82.6385H141.293Z" fill="black"/>
<path d="M173.646 81.1725H179.06V82.6385H172.097V70.9768H178.977V72.4429H173.646V76.0247H178.561V77.4741H173.646V81.1725Z" fill="black"/>
<path d="M204.504 82.6385L201.889 78.1738H199.14V82.6385H197.59V70.9768H202.255C203.255 70.9768 204.11 71.3322 204.821 72.043C205.531 72.7427 205.887 73.5924 205.887 74.592C205.887 75.3472 205.659 76.0358 205.204 76.6578C204.76 77.2797 204.182 77.7184 203.471 77.9739L206.22 82.6385H204.504ZM199.14 72.4262V76.7744H202.255C202.833 76.7744 203.321 76.5633 203.721 76.1413C204.132 75.7082 204.338 75.1917 204.338 74.592C204.338 73.9922 204.132 73.4813 203.721 73.0593C203.321 72.6372 202.833 72.4262 202.255 72.4262H199.14Z" fill="black"/>
<path d="M252.139 76.108V77.4907H249.241V80.3895H247.858V77.4907H244.976V76.108H247.858V73.2259H249.241V76.108H252.139Z" fill="black"/>
<path d="M297.302 82.8551C295.536 82.8551 294.076 82.272 292.921 81.1059C291.777 79.9397 291.205 78.507 291.205 76.8077C291.205 75.1084 291.777 73.6757 292.921 72.5095C294.076 71.3433 295.536 70.7603 297.302 70.7603C298.368 70.7603 299.346 71.0157 300.234 71.5266C301.134 72.0375 301.834 72.7261 302.333 73.5924L300.984 74.3754C300.651 73.7312 300.151 73.2203 299.485 72.8427C298.829 72.454 298.102 72.2596 297.302 72.2596C295.958 72.2596 294.859 72.6928 294.004 73.5591C293.16 74.4254 292.737 75.5082 292.737 76.8077C292.737 78.096 293.16 79.1733 294.004 80.0396C294.859 80.9059 295.958 81.3391 297.302 81.3391C298.102 81.3391 298.829 81.1503 299.485 80.7727C300.151 80.3839 300.651 79.8731 300.984 79.24L302.333 80.0063C301.845 80.8726 301.151 81.5668 300.251 82.0888C299.351 82.5997 298.368 82.8551 297.302 82.8551Z" fill="black"/>
<path d="M330.411 81.0892C329.245 82.2665 327.818 82.8551 326.13 82.8551C324.441 82.8551 323.014 82.2665 321.848 81.0892C320.682 79.9119 320.099 78.4848 320.099 76.8077C320.099 75.1195 320.682 73.6923 321.848 72.5262C323.014 71.3489 324.441 70.7603 326.13 70.7603C327.818 70.7603 329.245 71.3489 330.411 72.5262C331.588 73.6923 332.177 75.1195 332.177 76.8077C332.177 78.4848 331.588 79.9119 330.411 81.0892ZM322.914 80.0396C323.781 80.9059 324.852 81.3391 326.13 81.3391C327.407 81.3391 328.473 80.9059 329.328 80.0396C330.195 79.1622 330.628 78.0849 330.628 76.8077C330.628 75.5193 330.195 74.442 329.328 73.5757C328.473 72.6983 327.407 72.2596 326.13 72.2596C324.852 72.2596 323.781 72.6983 322.914 73.5757C322.059 74.442 321.631 75.5193 321.631 76.8077C321.631 78.0849 322.059 79.1622 322.914 80.0396Z" fill="black"/>
<path d="M357.413 72.4429H352.249V76.2246H357.196V77.6906H352.249V82.6385H350.699V70.9768H357.413V72.4429Z" fill="black"/>
<path d="M382.663 72.4429H377.498V76.2246H382.446V77.6906H377.498V82.6385H375.949V70.9768H382.663V72.4429Z" fill="black"/>
<path d="M402.748 81.1725H408.162V82.6385H401.199V70.9768H408.079V72.4429H402.748V76.0247H407.663V77.4741H402.748V81.1725Z" fill="black"/>
<path d="M428.242 81.1725H433.656V82.6385H426.692V70.9768H433.573V72.4429H428.242V76.0247H433.156V77.4741H428.242V81.1725Z" fill="black"/>
</svg>
