<svg width="36" height="25" viewBox="0 0 36 25" fill="none" xmlns="http://www.w3.org/2000/svg">
<rect x="0.000488281" y="0.895508" width="36" height="24" rx="2.26957" fill="#0F3560"/>
<path d="M21.1417 18.7943H14.8423V7.00146H21.1417V18.7943Z" fill="#FF5F00"/>
<path d="M15.2459 12.897C15.2459 10.5047 16.3212 8.3738 17.9956 7.00054C16.7711 5.99634 15.2257 5.39697 13.5463 5.39697C9.57021 5.39697 6.34717 8.75478 6.34717 12.897C6.34717 17.0392 9.57021 20.397 13.5463 20.397C15.2257 20.397 16.7711 19.7976 17.9956 18.7934C16.3212 17.4201 15.2459 15.2892 15.2459 12.897Z" fill="#EB001B"/>
<path d="M29.6377 12.897C29.6377 17.0392 26.4146 20.397 22.4386 20.397C20.7591 20.397 19.2137 19.7976 17.9888 18.7934C19.6637 17.4201 20.739 15.2892 20.739 12.897C20.739 10.5047 19.6637 8.3738 17.9888 7.00054C19.2137 5.99634 20.7591 5.39697 22.4386 5.39697C26.4146 5.39697 29.6377 8.75478 29.6377 12.897Z" fill="#F79E1B"/>
<path d="M11.764 12.9446C11.764 12.617 11.9701 12.3478 12.3069 12.3478C12.6287 12.3478 12.8459 12.6054 12.8459 12.9446C12.8459 13.2838 12.6287 13.5413 12.3069 13.5413C11.9701 13.5413 11.764 13.2722 11.764 12.9446ZM13.2127 12.9446V12.0126H12.8236V12.2389C12.7002 12.0711 12.513 11.9658 12.2585 11.9658C11.7568 11.9658 11.3634 12.3755 11.3634 12.9446C11.3634 13.5141 11.7568 13.9233 12.2585 13.9233C12.513 13.9233 12.7002 13.818 12.8236 13.6502V13.8765H13.2127V12.9446ZM26.3597 12.9446C26.3597 12.617 26.5658 12.3478 26.9026 12.3478C27.2248 12.3478 27.4416 12.6054 27.4416 12.9446C27.4416 13.2838 27.2248 13.5413 26.9026 13.5413C26.5658 13.5413 26.3597 13.2722 26.3597 12.9446ZM27.8088 12.9446V11.2642H27.4193V12.2389C27.2959 12.0711 27.1087 11.9658 26.8542 11.9658C26.3525 11.9658 25.9591 12.3755 25.9591 12.9446C25.9591 13.5141 26.3525 13.9233 26.8542 13.9233C27.1087 13.9233 27.2959 13.818 27.4193 13.6502V13.8765H27.8088V12.9446ZM18.0419 12.3286C18.2926 12.3286 18.4537 12.4924 18.4948 12.7808H17.5663C17.6079 12.5116 17.7647 12.3286 18.0419 12.3286ZM18.0496 11.9658C17.5252 11.9658 17.1584 12.3635 17.1584 12.9446C17.1584 13.5373 17.5402 13.9233 18.0758 13.9233C18.3453 13.9233 18.5921 13.8533 18.8093 13.6622L18.6186 13.3619C18.4687 13.4864 18.2776 13.5569 18.0981 13.5569C17.8474 13.5569 17.619 13.436 17.5629 13.1003H18.8916C18.8954 13.0499 18.8993 12.999 18.8993 12.9446C18.8954 12.3635 18.5509 11.9658 18.0496 11.9658ZM22.7473 12.9446C22.7473 12.617 22.9534 12.3478 23.2902 12.3478C23.612 12.3478 23.8292 12.6054 23.8292 12.9446C23.8292 13.2838 23.612 13.5413 23.2902 13.5413C22.9534 13.5413 22.7473 13.2722 22.7473 12.9446ZM24.196 12.9446V12.0126H23.8069V12.2389C23.6831 12.0711 23.4963 11.9658 23.2418 11.9658C22.7401 11.9658 22.3467 12.3755 22.3467 12.9446C22.3467 13.5141 22.7401 13.9233 23.2418 13.9233C23.4963 13.9233 23.6831 13.818 23.8069 13.6502V13.8765H24.196V12.9446ZM20.5502 12.9446C20.5502 13.51 20.9281 13.9233 21.5048 13.9233C21.7743 13.9233 21.9538 13.8609 22.1483 13.7011L21.9615 13.3735C21.8154 13.4828 21.662 13.5413 21.4932 13.5413C21.1826 13.5373 20.9542 13.3034 20.9542 12.9446C20.9542 12.5857 21.1826 12.3519 21.4932 12.3478C21.662 12.3478 21.8154 12.4063 21.9615 12.5157L22.1483 12.1881C21.9538 12.0283 21.7743 11.9658 21.5048 11.9658C20.9281 11.9658 20.5502 12.3791 20.5502 12.9446ZM25.5662 11.9658C25.3417 11.9658 25.1956 12.0751 25.0945 12.2389V12.0126H24.7089V13.8765H25.0983V12.8316C25.0983 12.5232 25.2256 12.3519 25.4801 12.3519C25.5589 12.3519 25.6412 12.3635 25.7235 12.3987L25.8434 12.0167C25.7573 11.9814 25.6451 11.9658 25.5662 11.9658ZM15.1369 12.1608C14.9497 12.0323 14.6918 11.9658 14.4073 11.9658C13.9539 11.9658 13.6621 12.1921 13.6621 12.5625C13.6621 12.8665 13.8794 13.0539 14.2796 13.1124L14.4634 13.1396C14.6768 13.1708 14.7774 13.2293 14.7774 13.3346C14.7774 13.4788 14.6352 13.5609 14.3695 13.5609C14.1 13.5609 13.9055 13.4712 13.7744 13.3659L13.591 13.6814C13.8044 13.8452 14.0739 13.9233 14.3657 13.9233C14.8824 13.9233 15.1819 13.6698 15.1819 13.315C15.1819 12.9874 14.9463 12.816 14.5568 12.7576L14.3734 12.7299C14.205 12.7067 14.07 12.6719 14.07 12.5469C14.07 12.4103 14.1973 12.3286 14.4107 12.3286C14.6391 12.3286 14.8601 12.4184 14.9685 12.4884L15.1369 12.1608ZM20.1568 11.9658C19.9323 11.9658 19.7862 12.0751 19.6855 12.2389V12.0126H19.2999V13.8765H19.689V12.8316C19.689 12.5232 19.8162 12.3519 20.0707 12.3519C20.1496 12.3519 20.2318 12.3635 20.3141 12.3987L20.4341 12.0167C20.3479 11.9814 20.2357 11.9658 20.1568 11.9658ZM16.8367 12.0126H16.2004V11.4472H15.807V12.0126H15.4441V12.3831H15.807V13.2333C15.807 13.6658 15.9682 13.9233 16.4283 13.9233C16.5971 13.9233 16.7917 13.8689 16.9151 13.7792L16.8028 13.4319C16.6867 13.502 16.5594 13.5373 16.4583 13.5373C16.2638 13.5373 16.2004 13.4123 16.2004 13.2253V12.3831H16.8367V12.0126ZM11.0194 13.8765V12.7067C11.0194 12.2662 10.7499 11.9698 10.3154 11.9658C10.087 11.9618 9.85137 12.0359 9.68641 12.2974C9.56302 12.0908 9.36849 11.9658 9.09513 11.9658C8.90403 11.9658 8.71722 12.0243 8.57112 12.2425V12.0126H8.18164V13.8765H8.57454V12.8432C8.57454 12.5197 8.74679 12.3478 9.01286 12.3478C9.27123 12.3478 9.40191 12.5232 9.40191 12.8392V13.8765H9.79524V12.8432C9.79524 12.5197 9.97477 12.3478 10.2331 12.3478C10.4988 12.3478 10.626 12.5232 10.626 12.8392V13.8765H11.0194Z" fill="white"/>
</svg>
