<svg width="84" height="22" viewBox="0 0 84 22" fill="none" xmlns="http://www.w3.org/2000/svg">
<path d="M10.08 0.00125694H3.54646C3.09929 0.00125694 2.7191 0.320581 2.64933 0.754509L0.00686092 17.2206C-0.0456958 17.5454 0.210392 17.8384 0.545664 17.8384H3.66488C4.11197 17.8384 4.49216 17.5192 4.56193 17.0845L5.2746 12.6433C5.34343 12.2085 5.72456 11.8893 6.17071 11.8893H8.23904C12.5428 11.8893 15.0267 9.84237 15.6755 5.78616C15.9677 4.01155 15.6878 2.61726 14.8423 1.64078C13.9138 0.568399 12.2667 0.00125694 10.08 0.00125694ZM10.8338 6.01529C10.4765 8.31945 8.68519 8.31945 6.95314 8.31945H5.96726L6.6589 4.01631C6.70002 3.75619 6.92924 3.56465 7.19678 3.56465H7.64861C8.82844 3.56465 9.94148 3.56465 10.5166 4.22559C10.8596 4.62 10.9647 5.20587 10.8338 6.01529Z" fill="#283B82"/>
<path d="M29.6101 5.94139H26.4815C26.215 5.94139 25.9848 6.13295 25.9435 6.39305L25.8052 7.2531L25.5863 6.94134C24.909 5.97515 23.3985 5.65222 21.891 5.65222C18.4337 5.65222 15.4807 8.22583 14.9056 11.836C14.6066 13.6369 15.0317 15.3589 16.0711 16.5598C17.0245 17.6639 18.3887 18.124 20.0119 18.124C22.7977 18.124 24.3425 16.3636 24.3425 16.3636L24.203 17.218C24.1504 17.5448 24.4065 17.8377 24.74 17.8377H27.558C28.0061 17.8377 28.3844 17.5185 28.4552 17.0838L30.1461 6.55919C30.1997 6.23525 29.9446 5.94139 29.6101 5.94139ZM25.249 11.9262C24.9473 13.6829 23.5285 14.8623 21.7192 14.8623C20.8106 14.8623 20.0845 14.5759 19.6183 14.0331C19.1559 13.4942 18.9801 12.7271 19.1273 11.8726C19.409 10.1309 20.8517 8.91317 22.6333 8.91317C23.5219 8.91317 24.244 9.20327 24.7198 9.75058C25.1966 10.3036 25.3856 11.0755 25.249 11.9262Z" fill="#283B82"/>
<path d="M46.2724 5.94123H43.1284C42.8284 5.94123 42.5466 6.08771 42.3766 6.33282L38.0402 12.6105L36.2022 6.57786C36.0866 6.20035 35.7322 5.94123 35.331 5.94123H32.2414C31.8659 5.94123 31.6052 6.30175 31.7246 6.64917L35.1877 16.6376L31.9319 21.1549C31.6757 21.5106 31.9337 22 32.3762 22H35.5163C35.8143 22 36.0934 21.8572 36.2624 21.6168L46.7195 6.78164C46.9698 6.42664 46.7129 5.94123 46.2724 5.94123Z" fill="#283B82"/>
<path d="M56.682 0.00125694H50.1475C49.7014 0.00125694 49.3211 0.320581 49.2513 0.754509L46.6089 17.2206C46.5565 17.5454 46.8124 17.8384 47.1459 17.8384H50.4991C50.8105 17.8384 51.0772 17.615 51.1258 17.3108L51.8757 12.6433C51.9444 12.2085 52.3258 11.8893 52.7718 11.8893H54.8393C59.1439 11.8893 61.6269 9.84237 62.2765 5.78616C62.5699 4.01155 62.2881 2.61726 61.4425 1.64078C60.5149 0.568399 58.8688 0.00125694 56.682 0.00125694ZM57.4359 6.01529C57.0795 8.31945 55.2883 8.31945 53.5552 8.31945H52.5703L53.263 4.01631C53.304 3.75619 53.5313 3.56465 53.7998 3.56465H54.2516C55.4307 3.56465 56.5445 3.56465 57.1195 4.22559C57.4626 4.62 57.5666 5.20587 57.4359 6.01529Z" fill="#469BDB"/>
<path d="M76.2117 5.94139H73.0849C72.8164 5.94139 72.5879 6.13295 72.5479 6.39305L72.4093 7.2531L72.1897 6.94134C71.5124 5.97515 70.0029 5.65222 68.4954 5.65222C65.0379 5.65222 62.086 8.22583 61.5108 11.836C61.2128 13.6369 61.636 15.3589 62.6754 16.5598C63.6308 17.6639 64.993 18.124 66.6161 18.124C69.4019 18.124 70.9467 16.3636 70.9467 16.3636L70.8072 17.218C70.7547 17.5448 71.0107 17.8377 71.3461 17.8377H74.1634C74.6095 17.8377 74.9898 17.5185 75.0596 17.0838L76.7515 6.55919C76.8029 6.23525 76.547 5.94139 76.2117 5.94139ZM71.8504 11.9262C71.5504 13.6829 70.1298 14.8623 68.3206 14.8623C67.4138 14.8623 66.6859 14.5759 66.2197 14.0331C65.7574 13.4942 65.5834 12.7271 65.7287 11.8726C66.0124 10.1309 67.4531 8.91317 69.2349 8.91317C70.1233 8.91317 70.8454 9.20327 71.3212 9.75058C71.7998 10.3036 71.989 11.0755 71.8504 11.9262Z" fill="#469BDB"/>
<path d="M79.9005 0.453012L77.2187 17.2206C77.1663 17.5454 77.4223 17.8384 77.7557 17.8384H80.4516C80.8997 17.8384 81.28 17.5192 81.3488 17.0845L83.9931 0.619335C84.0457 0.294331 83.7898 0.00047493 83.4563 0.00047493H80.4373C80.1708 0.00125885 79.9416 0.193048 79.9005 0.453012Z" fill="#469BDB"/>
</svg>
