<svg width="24" height="24" viewBox="0 0 24 24" fill="none" xmlns="http://www.w3.org/2000/svg">
<rect width="24" height="24" rx="12" fill="white"/>
<path d="M10.7598 17.3967C11.1487 18.1408 12.2883 18.771 13.4984 18.771C17.1017 18.771 19.6962 15.4559 19.6962 11.3397C19.6962 7.39448 16.4749 4.44141 12.3319 4.44141C7.1766 4.44141 4.44141 7.90062 4.44141 11.6716C4.44141 13.4246 5.37325 15.6034 6.86487 16.2973C7.0928 16.4045 7.21347 16.3576 7.26375 16.1397C7.30398 15.9721 7.50509 15.1643 7.5956 14.7855C7.62912 14.6649 7.59895 14.5341 7.5118 14.4436C7.01906 13.8436 6.62353 12.7442 6.62353 11.7185C6.62353 9.08386 8.61794 6.53303 12.0168 6.53303C14.9531 6.53303 17.0079 8.53079 17.0079 11.3934C17.0079 14.6246 15.3755 16.8638 13.2503 16.8638C12.0772 16.8638 11.1989 15.895 11.4805 14.7051C11.8191 13.2839 12.4693 11.752 12.4693 10.7263C12.4693 9.80789 11.9766 9.04364 10.9576 9.04364C9.75761 9.04364 8.7956 10.2839 8.7956 11.9431C8.7956 13.0023 9.15426 13.7163 9.15426 13.7163C9.15426 13.7163 7.97101 18.7207 7.75314 19.6526C7.50509 20.7252 7.61906 22.2638 7.72632 23.2023C7.97101 23.2962 8.21236 23.39 8.46375 23.4671C8.94979 22.6861 9.73414 21.3118 10.0124 20.2325C10.1598 19.6794 10.7598 17.3967 10.7598 17.3967Z" fill="#231F20"/>
</svg>
