<svg width="92" height="22" viewBox="0 0 92 22" fill="none" xmlns="http://www.w3.org/2000/svg">
<g clip-path="url(#clip0_290_2474)">
<path d="M23.3147 6.91984C22.585 5.37892 21.2013 4.38356 19.1162 4.38356C18.4763 4.39478 17.8474 4.55383 17.2782 4.84834C16.709 5.14289 16.2145 5.56509 15.8331 6.08237L15.757 6.17568V0.136483C15.757 0.10158 15.7432 0.0681095 15.7187 0.0434302C15.6941 0.0187504 15.6609 0.00488281 15.6262 0.00488281H12.6782C12.6439 0.00550995 12.6113 0.0196504 12.5873 0.0442623C12.5633 0.0688743 12.5498 0.101991 12.5498 0.136483V17.4597C12.5498 17.494 12.5634 17.5268 12.5874 17.5511C12.6115 17.5753 12.6441 17.5889 12.6782 17.5889H15.8354C15.8697 17.5889 15.9026 17.5754 15.9271 17.5512C15.9515 17.5271 15.9655 17.4942 15.9662 17.4597V10.0734C15.9662 8.63781 16.9171 7.62089 18.4387 7.62089C20.1029 7.62089 20.5237 8.9991 20.5237 10.4036V17.4597C20.5237 17.494 20.5372 17.5268 20.5613 17.5511C20.5854 17.5753 20.618 17.5889 20.6521 17.5889H23.8021C23.8364 17.5889 23.8693 17.5754 23.8938 17.5512C23.9182 17.5271 23.9324 17.4942 23.933 17.4597V9.9825C23.933 9.72648 23.933 9.47523 23.8997 9.23119C23.8455 8.43143 23.6474 7.64821 23.3147 6.91984Z" fill="white"/>
<path d="M7.54987 9.48744C7.54987 9.48744 5.94273 9.10699 5.35076 8.95386C4.75876 8.80073 3.72458 8.47532 3.72458 7.68811C3.72458 6.9009 4.55905 6.64965 5.40544 6.64965C6.2518 6.64965 7.19327 6.85544 7.26696 7.80057C7.26994 7.83464 7.28551 7.8663 7.3106 7.88938C7.3357 7.91242 7.36848 7.9251 7.40246 7.925L10.5145 7.91303C10.5328 7.91307 10.551 7.90932 10.5678 7.902C10.5846 7.89468 10.5997 7.88395 10.6122 7.87045C10.6247 7.857 10.6343 7.84107 10.6404 7.8237C10.6465 7.8063 10.649 7.78784 10.6476 7.76945C10.4551 4.74507 7.81851 3.66357 5.3864 3.66357C2.50258 3.66357 0.393821 5.57774 0.393821 7.68811C0.393821 9.22902 0.826513 10.6742 4.22859 11.6792C4.82533 11.8538 5.63605 12.0811 6.34453 12.2797C7.19563 12.519 7.65447 12.8803 7.65447 13.4498C7.65447 14.1102 6.70351 14.5695 5.76918 14.5695C4.41643 14.5695 3.45595 14.0647 3.37749 13.1578C3.3734 13.1247 3.35736 13.0941 3.33236 13.0721C3.30738 13.05 3.27521 13.0379 3.24197 13.0382L0.137059 13.0526C0.118856 13.0526 0.10084 13.0562 0.0840811 13.0634C0.0673223 13.0706 0.0521668 13.081 0.039519 13.0942C0.0268713 13.1074 0.0169887 13.123 0.0104651 13.1401C0.00394147 13.1572 0.000909609 13.1754 0.00154832 13.1938C0.144194 16.0483 2.88298 17.5868 5.43636 17.5868C9.24023 17.5868 10.9591 15.4333 10.9591 13.4163C10.9639 12.4688 10.7475 10.3105 7.54987 9.48744Z" fill="white"/>
<path d="M47.5856 4.37878C46.0048 4.37878 44.6804 5.25928 43.8269 6.32169V4.5032C43.8269 4.46934 43.8136 4.43682 43.79 4.41268C43.7668 4.38851 43.7345 4.37462 43.7008 4.37402H40.7482C40.7143 4.37402 40.6814 4.3876 40.6574 4.41183C40.6333 4.43608 40.6196 4.46896 40.6196 4.5032V21.4915C40.6205 21.5252 40.6344 21.5577 40.6584 21.5812C40.6824 21.605 40.7147 21.6184 40.7482 21.6184H43.9078C43.9411 21.6184 43.9732 21.605 43.9968 21.5812C44.0204 21.5575 44.0337 21.525 44.0337 21.4915V15.9069H44.0813C44.5828 16.6773 45.9546 17.6009 47.7474 17.6009C51.1183 17.6009 53.9286 14.7871 53.9286 10.9851C53.9311 7.3362 51.1351 4.37878 47.5856 4.37878ZM47.2932 14.3636C46.6279 14.3802 45.9721 14.1969 45.4108 13.8371C44.8494 13.4772 44.407 12.9571 44.1403 12.3431C43.8739 11.7292 43.795 11.0492 43.9144 10.39C44.0332 9.73082 44.345 9.12231 44.8092 8.64215C45.2736 8.16193 45.8695 7.83186 46.521 7.69405C47.1724 7.55624 47.8499 7.61689 48.4669 7.86831C49.0841 8.11971 49.6126 8.55048 49.9855 9.10561C50.3581 9.66077 50.558 10.3151 50.5599 10.9851C50.5666 11.423 50.4874 11.8581 50.3269 12.2652C50.1665 12.6723 49.9275 13.0435 49.6239 13.3574C49.3206 13.6713 48.9585 13.9218 48.5582 14.0945C48.1583 14.2671 47.7285 14.3586 47.2932 14.3636Z" fill="white"/>
<path d="M31.2697 3.63232C28.324 3.63232 26.8548 4.63966 25.6754 5.44602L25.6398 5.46993C25.5791 5.51181 25.5363 5.57528 25.52 5.64758C25.5036 5.71991 25.515 5.79573 25.5519 5.85995L26.7169 7.87937C26.7386 7.91717 26.7686 7.94965 26.8042 7.97445C26.84 7.99927 26.8807 8.01584 26.9237 8.02295C26.9657 8.03057 27.0087 8.02872 27.0498 8.01754C27.0909 8.00636 27.129 7.98618 27.1615 7.95833L27.254 7.88178C27.8603 7.36974 28.8327 6.6854 31.1864 6.49877C32.4963 6.39353 33.628 6.73806 34.4626 7.52287C35.3802 8.37469 35.9295 9.75049 35.9295 11.2029C35.9295 13.8755 34.365 15.5552 31.8521 15.5887C29.7813 15.5768 28.3904 14.4905 28.3904 12.885C28.3904 12.0331 28.7732 11.478 29.5199 10.9229C29.5768 10.8819 29.617 10.8215 29.6333 10.7529C29.6495 10.6843 29.6404 10.6121 29.6078 10.5497L28.5618 8.55891C28.5424 8.52329 28.5163 8.49184 28.4849 8.46639C28.4535 8.44093 28.4174 8.42196 28.3786 8.41057C28.339 8.39871 28.2975 8.39536 28.2566 8.40068C28.2155 8.40605 28.1761 8.42001 28.1409 8.44169C26.9665 9.14274 25.5257 10.4252 25.6041 12.8897C25.6992 16.0266 28.2907 18.4217 31.6594 18.5198H31.8283H32.0589C36.0623 18.3882 38.9533 15.3973 38.9533 11.3417C38.9533 7.61857 36.2573 3.63232 31.2697 3.63232Z" fill="white"/>
<path d="M66.379 5.54639H64.3722C64.3254 5.547 64.2803 5.56612 64.247 5.59962C64.2135 5.63314 64.1945 5.67843 64.1943 5.72585V9.96332C64.1945 10.0105 64.2137 10.0555 64.2472 10.0887C64.2806 10.1218 64.3254 10.1404 64.3722 10.1404H66.379C67.601 10.1404 68.5021 9.17134 68.5021 7.84338C68.5021 6.51543 67.601 5.54639 66.379 5.54639Z" fill="white"/>
<path d="M72.5435 13.0429C72.5435 13.6578 73.0593 14 73.9579 14C75.1799 14 75.9025 13.3348 75.9025 12.1552V11.8154L74.0721 11.9111C73.1067 11.959 72.5435 12.3634 72.5435 13.0429Z" fill="white"/>
<path d="M87.4028 0.0434782H60.4428C60.0008 0.0434778 59.5626 0.131194 59.1542 0.301609C58.7455 0.472026 58.3743 0.721805 58.0619 1.03667C57.7491 1.35154 57.5012 1.72532 57.3321 2.13666C57.1629 2.548 57.0762 2.98883 57.0767 3.43396V18.2879C57.0767 19.1867 57.4312 20.0487 58.0625 20.6845C58.6939 21.3203 59.5501 21.6777 60.4428 21.6784H87.4028C87.8457 21.6796 88.2846 21.5931 88.6941 21.4236C89.1035 21.2541 89.4758 21.0049 89.7896 20.6905C90.1031 20.376 90.3525 20.0024 90.5228 19.5909C90.6929 19.1795 90.7806 18.7383 90.7814 18.2927V3.43874C90.7821 2.9922 90.6954 2.54987 90.526 2.13719C90.3565 1.72453 90.1075 1.34965 89.7937 1.03411C89.4798 0.718585 89.1069 0.468629 88.6967 0.29862C88.2865 0.12861 87.8468 0.0419002 87.4028 0.0434782ZM66.4815 11.8085H64.3609C64.3137 11.8085 64.2685 11.8274 64.2348 11.861C64.2015 11.8947 64.1825 11.9403 64.1825 11.9879V15.0266C64.1825 15.0742 64.1638 15.1199 64.1305 15.1535C64.097 15.1872 64.0516 15.2061 64.0044 15.2061H62.5112C62.4644 15.2055 62.419 15.1864 62.3857 15.1528C62.3524 15.1194 62.3339 15.0741 62.333 15.0266V4.06562C62.333 4.01806 62.3518 3.9724 62.3855 3.93873C62.4188 3.90509 62.4639 3.88618 62.5112 3.88618H66.4815C68.7306 3.88618 70.3401 5.53476 70.3401 7.84852C70.3401 10.1623 68.7425 11.8132 66.4937 11.8132L66.4815 11.8085ZM77.6555 15.0243C77.6559 15.048 77.6517 15.0716 77.6426 15.0937C77.6338 15.1157 77.6207 15.1358 77.6042 15.1527C77.5874 15.1696 77.5678 15.1831 77.5459 15.1922C77.5244 15.2014 77.5007 15.2061 77.4771 15.2061H76.0673C76.0437 15.2061 76.0203 15.2014 75.9986 15.1922C75.9767 15.1831 75.9569 15.1696 75.9404 15.1527C75.924 15.1358 75.9107 15.1157 75.9021 15.0937C75.8932 15.0716 75.8888 15.048 75.8892 15.0243V14.6965C75.8913 14.6677 75.8846 14.6389 75.8692 14.6145C75.8542 14.59 75.8317 14.5711 75.8047 14.5606C75.7781 14.5501 75.7488 14.5486 75.7212 14.5563C75.6932 14.5639 75.6689 14.5804 75.6515 14.6032C75.2305 15.0649 74.5458 15.3999 73.4546 15.3999C71.8477 15.3999 70.7846 14.5577 70.7846 13.1029C70.7692 12.7482 70.842 12.3952 70.9965 12.0759C71.1508 11.7567 71.3822 11.4814 71.6693 11.2749C72.2492 10.837 73.1478 10.6097 74.4815 10.5571L75.896 10.5092V10.0929C75.896 9.25302 75.335 8.89652 74.4339 8.89652C73.533 8.89652 72.9647 9.21714 72.8319 9.74115C72.8211 9.77815 72.7986 9.81053 72.7674 9.83308C72.7366 9.85565 72.6988 9.86707 72.6605 9.86556H71.265C71.2393 9.86622 71.2138 9.86117 71.1902 9.85086C71.167 9.8405 71.1457 9.8251 71.1286 9.80571C71.1118 9.7863 71.0991 9.76345 71.092 9.73863C71.0846 9.71383 71.0827 9.68776 71.0867 9.66219C71.296 8.41797 72.3182 7.47284 74.4984 7.47284C76.814 7.47284 77.6483 8.55676 77.6483 10.6264L77.6555 15.0243ZM86.4378 7.9131L83.2997 16.3379C82.5864 18.2951 81.3381 18.7976 79.9711 18.7976C79.7137 18.8039 79.4565 18.7725 79.208 18.7043C79.1692 18.6938 79.1353 18.6708 79.1104 18.6387C79.0861 18.6068 79.0729 18.5676 79.0724 18.5272V17.2471C79.0724 17.2203 79.0781 17.1938 79.0893 17.1696C79.1007 17.1453 79.1169 17.1238 79.1374 17.1067C79.158 17.0895 79.1818 17.0771 79.2076 17.0704C79.2333 17.0637 79.2603 17.0627 79.2864 17.0676C79.502 17.1088 79.7208 17.1296 79.9403 17.1299C80.3182 17.1489 80.6918 17.0398 81.001 16.8198C81.3098 16.5999 81.5366 16.2818 81.6448 15.9167L81.7377 15.6224C81.7521 15.5831 81.7521 15.5398 81.7377 15.5004L78.8037 7.91551C78.7948 7.8884 78.7923 7.85951 78.7965 7.83125C78.8009 7.80297 78.8117 7.77609 78.8277 7.7528C78.8444 7.7295 78.8661 7.71043 78.8912 7.69711C78.9162 7.6838 78.9443 7.67663 78.9725 7.67623H80.3992C80.4356 7.67659 80.4711 7.68792 80.5012 7.70884C80.5313 7.72971 80.5545 7.7592 80.5678 7.79349L82.5602 13.1436C82.5735 13.1785 82.5967 13.2086 82.6273 13.2299C82.658 13.2512 82.6941 13.2625 82.7314 13.2625C82.7683 13.2625 82.805 13.2512 82.8353 13.2299C82.8659 13.2086 82.8895 13.1785 82.9024 13.1436L84.6311 7.80785C84.6425 7.77146 84.6654 7.73977 84.6962 7.71739C84.727 7.69498 84.7639 7.68308 84.8018 7.68342H86.2643C86.2924 7.6833 86.3202 7.68991 86.3457 7.7026C86.3708 7.71533 86.3929 7.73383 86.4098 7.75664C86.4266 7.77944 86.4378 7.8059 86.4427 7.83392C86.4477 7.8619 86.446 7.89067 86.4378 7.91789V7.9131Z" fill="white"/>
</g>
<defs>
<clipPath id="clip0_290_2474">
<rect width="91" height="22" fill="white" transform="translate(0.00146484)"/>
</clipPath>
</defs>
</svg>
