<svg width="91" height="22" viewBox="0 0 91 22" fill="none" xmlns="http://www.w3.org/2000/svg">
<g clip-path="url(#clip0_430_8258)">
<path d="M23.3133 6.92008C22.5835 5.37917 21.1998 4.3838 19.1148 4.3838C18.4748 4.39502 17.8459 4.55407 17.2767 4.84858C16.7075 5.14313 16.213 5.56533 15.8316 6.08262L15.7555 6.17592V0.136727C15.7555 0.101824 15.7417 0.0683536 15.7172 0.0436744C15.6927 0.0189945 15.6594 0.00512695 15.6247 0.00512695H12.6767C12.6425 0.00575409 12.6098 0.0198946 12.5858 0.0445064C12.5618 0.0691184 12.5483 0.102235 12.5483 0.136727V17.46C12.5483 17.4943 12.5619 17.5271 12.586 17.5513C12.61 17.5756 12.6427 17.5892 12.6767 17.5892H15.834C15.8682 17.5892 15.9011 17.5757 15.9256 17.5515C15.95 17.5273 15.9641 17.4945 15.9647 17.46V10.0737C15.9647 8.63805 16.9157 7.62113 18.4372 7.62113C20.1014 7.62113 20.5222 8.99935 20.5222 10.4038V17.46C20.5222 17.4943 20.5357 17.5271 20.5598 17.5513C20.5839 17.5756 20.6166 17.5892 20.6506 17.5892H23.8006C23.835 17.5892 23.8679 17.5757 23.8923 17.5515C23.9168 17.5273 23.9309 17.4945 23.9315 17.46V9.98275C23.9315 9.72672 23.9315 9.47547 23.8982 9.23144C23.844 8.43167 23.6459 7.64846 23.3133 6.92008Z" fill="#5C46EC"/>
<path d="M7.54841 9.48744C7.54841 9.48744 5.94127 9.10699 5.34929 8.95386C4.7573 8.80073 3.72312 8.47532 3.72312 7.68811C3.72312 6.9009 4.55759 6.64965 5.40397 6.64965C6.25033 6.64965 7.1918 6.85544 7.2655 7.80057C7.26847 7.83464 7.28405 7.8663 7.30913 7.88938C7.33424 7.91242 7.36702 7.9251 7.401 7.925L10.513 7.91303C10.5314 7.91307 10.5495 7.90932 10.5663 7.902C10.5831 7.89468 10.5982 7.88395 10.6107 7.87045C10.6232 7.857 10.6328 7.84107 10.6389 7.8237C10.645 7.8063 10.6475 7.78784 10.6462 7.76945C10.4536 4.74507 7.81704 3.66357 5.38494 3.66357C2.50112 3.66357 0.392356 5.57774 0.392356 7.68811C0.392356 9.22902 0.825048 10.6742 4.22713 11.6792C4.82386 11.8538 5.63458 12.0811 6.34306 12.2797C7.19417 12.519 7.653 12.8803 7.653 13.4498C7.653 14.1102 6.70204 14.5695 5.76772 14.5695C4.41497 14.5695 3.45448 14.0647 3.37602 13.1578C3.37193 13.1247 3.35589 13.0941 3.33089 13.0721C3.30591 13.05 3.27374 13.0379 3.2405 13.0382L0.135595 13.0526C0.117391 13.0526 0.0993753 13.0562 0.0826163 13.0634C0.0658575 13.0706 0.050702 13.081 0.0380541 13.0942C0.0254064 13.1074 0.0155239 13.123 0.00900025 13.1401C0.00247663 13.1572 -0.000555235 13.1754 8.34734e-05 13.1938C0.142729 16.0483 2.88152 17.5868 5.4349 17.5868C9.23877 17.5868 10.9576 15.4333 10.9576 13.4163C10.9624 12.4688 10.746 10.3105 7.54841 9.48744Z" fill="#5C46EC"/>
<path d="M47.5841 4.37902C46.0033 4.37902 44.6789 5.25953 43.8254 6.32194V4.50345C43.8254 4.46959 43.8121 4.43706 43.7885 4.41292C43.7653 4.38876 43.7331 4.37486 43.6994 4.37427H40.7467C40.7128 4.37427 40.6799 4.38785 40.6559 4.41207C40.6319 4.43632 40.6182 4.4692 40.6182 4.50345V21.4917C40.619 21.5255 40.6329 21.5579 40.6569 21.5815C40.681 21.6052 40.7132 21.6186 40.7467 21.6186H43.9064C43.9397 21.6186 43.9717 21.6052 43.9953 21.5815C44.0189 21.5577 44.0322 21.5252 44.0322 21.4917V15.9071H44.0798C44.5813 16.6775 45.9532 17.6012 47.746 17.6012C51.1168 17.6012 53.9271 14.7873 53.9271 10.9853C53.9297 7.33644 51.1337 4.37902 47.5841 4.37902ZM47.2917 14.3638C46.6265 14.3805 45.9707 14.1971 45.4093 13.8373C44.848 13.4774 44.4055 12.9573 44.1389 12.3434C43.8724 11.7294 43.7936 11.0495 43.9129 10.3903C44.0318 9.73107 44.3435 9.12255 44.8077 8.64239C45.2721 8.16217 45.868 7.83211 46.5196 7.69429C47.1709 7.55648 47.8484 7.61714 48.4654 7.86855C49.0826 8.11995 49.6111 8.55072 49.984 9.10586C50.3567 9.66101 50.5565 10.3153 50.5584 10.9853C50.5652 11.4233 50.4859 11.8583 50.3255 12.2654C50.1651 12.6725 49.926 13.0437 49.6225 13.3576C49.3191 13.6715 48.957 13.922 48.5567 14.0947C48.1568 14.2674 47.727 14.3588 47.2917 14.3638Z" fill="#5C46EC"/>
<path d="M31.2682 3.63257C28.3226 3.63257 26.8533 4.6399 25.6739 5.44626L25.6383 5.47017C25.5776 5.51205 25.5348 5.57553 25.5186 5.64783C25.5021 5.72015 25.5135 5.79597 25.5504 5.86019L26.7155 7.87961C26.7372 7.91742 26.7671 7.9499 26.8027 7.9747C26.8386 7.99952 26.8793 8.01609 26.9223 8.02319C26.9642 8.03081 27.0072 8.02896 27.0483 8.01778C27.0894 8.0066 27.1276 7.98643 27.16 7.95857L27.2526 7.88203C27.8588 7.36998 28.8312 6.68565 31.1849 6.49902C32.4948 6.39377 33.6266 6.7383 34.4611 7.52311C35.3787 8.37494 35.928 9.75074 35.928 11.2031C35.928 13.8758 34.3635 15.5554 31.8506 15.589C29.7798 15.577 28.389 14.4907 28.389 12.8852C28.389 12.0334 28.7718 11.4783 29.5184 10.9232C29.5753 10.8821 29.6156 10.8217 29.6318 10.7531C29.648 10.6845 29.639 10.6123 29.6063 10.5499L28.5603 8.55915C28.5409 8.52353 28.5148 8.49209 28.4834 8.46663C28.452 8.44117 28.4159 8.42221 28.3772 8.41081C28.3375 8.39895 28.296 8.3956 28.2551 8.40093C28.214 8.40629 28.1746 8.42025 28.1394 8.44194C26.9651 9.14299 25.5243 10.4255 25.6027 12.89C25.6978 16.0268 28.2893 18.4219 31.658 18.52H31.8268H32.0574C36.0608 18.3884 38.9519 15.3975 38.9519 11.3419C38.9519 7.61881 36.2558 3.63257 31.2682 3.63257Z" fill="#5C46EC"/>
<path d="M66.3775 5.54688H64.3708C64.324 5.54749 64.2789 5.56661 64.2456 5.6001C64.2121 5.63362 64.1931 5.67892 64.1929 5.72633V9.96381C64.1931 10.011 64.2123 10.056 64.2458 10.0891C64.2791 10.1223 64.324 10.1409 64.3708 10.1409H66.3775C67.5995 10.1409 68.5007 9.17183 68.5007 7.84387C68.5007 6.51591 67.5995 5.54688 66.3775 5.54688Z" fill="#5C46EC"/>
<path d="M72.542 13.0431C72.542 13.6581 73.0578 14.0002 73.9564 14.0002C75.1784 14.0002 75.901 13.335 75.901 12.1554V11.8157L74.0707 11.9114C73.1052 11.9592 72.542 12.3636 72.542 13.0431Z" fill="#5C46EC"/>
<path d="M87.4014 0.0434782H60.4414C59.9993 0.0434778 59.5611 0.131194 59.1528 0.301609C58.7441 0.472026 58.3728 0.721805 58.0605 1.03667C57.7476 1.35154 57.4997 1.72532 57.3307 2.13666C57.1614 2.548 57.0748 2.98883 57.0752 3.43396V18.2879C57.0752 19.1867 57.4297 20.0487 58.0611 20.6845C58.6924 21.3203 59.5487 21.6777 60.4414 21.6784H87.4014C87.8442 21.6796 88.2831 21.5931 88.6927 21.4236C89.102 21.2541 89.4743 21.0049 89.7882 20.6905C90.1016 20.376 90.351 20.0024 90.5213 19.5909C90.6914 19.1795 90.7791 18.7383 90.78 18.2927V3.43874C90.7806 2.9922 90.694 2.54987 90.5245 2.13719C90.355 1.72453 90.1061 1.34965 89.7922 1.03411C89.4783 0.718585 89.1054 0.468629 88.6952 0.29862C88.285 0.12861 87.8453 0.0419002 87.4014 0.0434782ZM66.48 11.8085H64.3594C64.3122 11.8085 64.2671 11.8274 64.2334 11.861C64.2 11.8947 64.1811 11.9403 64.1811 11.9879V15.0266C64.1811 15.0742 64.1623 15.1199 64.129 15.1535C64.0955 15.1872 64.0502 15.2061 64.003 15.2061H62.5097C62.4629 15.2055 62.4176 15.1864 62.3843 15.1528C62.351 15.1194 62.3324 15.0741 62.3316 15.0266V4.06562C62.3316 4.01806 62.3503 3.9724 62.3841 3.93873C62.4174 3.90509 62.4625 3.88618 62.5097 3.88618H66.48C68.7292 3.88618 70.3386 5.53476 70.3386 7.84852C70.3386 10.1623 68.741 11.8132 66.4922 11.8132L66.48 11.8085ZM77.654 15.0243C77.6544 15.048 77.6502 15.0716 77.6411 15.0937C77.6323 15.1157 77.6192 15.1358 77.6028 15.1527C77.5859 15.1696 77.5663 15.1831 77.5444 15.1922C77.5229 15.2014 77.4993 15.2061 77.4757 15.2061H76.0659C76.0423 15.2061 76.0189 15.2014 75.9972 15.1922C75.9752 15.1831 75.9554 15.1696 75.939 15.1527C75.9225 15.1358 75.9093 15.1157 75.9006 15.0937C75.8918 15.0716 75.8873 15.048 75.8878 15.0243V14.6965C75.8899 14.6677 75.8831 14.6389 75.8677 14.6145C75.8528 14.59 75.8302 14.5711 75.8032 14.5606C75.7767 14.5501 75.7474 14.5486 75.7198 14.5563C75.6917 14.5639 75.6675 14.5804 75.65 14.6032C75.229 15.0649 74.5444 15.3999 73.4531 15.3999C71.8462 15.3999 70.7832 14.5577 70.7832 13.1029C70.7678 12.7482 70.8405 12.3952 70.995 12.0759C71.1493 11.7567 71.3808 11.4814 71.6679 11.2749C72.2478 10.837 73.1464 10.6097 74.4801 10.5571L75.8945 10.5092V10.0929C75.8945 9.25302 75.3336 8.89652 74.4324 8.89652C73.5315 8.89652 72.9632 9.21714 72.8304 9.74115C72.8196 9.77815 72.7971 9.81053 72.7659 9.83308C72.7351 9.85565 72.6974 9.86707 72.659 9.86556H71.2636C71.2378 9.86622 71.2123 9.86117 71.1887 9.85086C71.1655 9.8405 71.1443 9.8251 71.1272 9.80571C71.1103 9.7863 71.0977 9.76345 71.0905 9.73863C71.0831 9.71383 71.0812 9.68776 71.0852 9.66219C71.2945 8.41797 72.3167 7.47284 74.4969 7.47284C76.8125 7.47284 77.6468 8.55676 77.6468 10.6264L77.654 15.0243ZM86.4363 7.9131L83.2982 16.3379C82.5849 18.2951 81.3366 18.7976 79.9696 18.7976C79.7122 18.8039 79.455 18.7725 79.2065 18.7043C79.1677 18.6938 79.1338 18.6708 79.1089 18.6387C79.0847 18.6068 79.0714 18.5676 79.071 18.5272V17.2471C79.071 17.2203 79.0767 17.1938 79.0878 17.1696C79.0992 17.1453 79.1154 17.1238 79.1359 17.1067C79.1566 17.0895 79.1804 17.0771 79.2061 17.0704C79.2318 17.0637 79.2588 17.0627 79.2849 17.0676C79.5006 17.1088 79.7194 17.1296 79.9388 17.1299C80.3168 17.1489 80.6903 17.0398 80.9995 16.8198C81.3083 16.5999 81.5352 16.2818 81.6433 15.9167L81.7363 15.6224C81.7506 15.5831 81.7506 15.5398 81.7363 15.5004L78.8022 7.91551C78.7934 7.8884 78.7908 7.85951 78.795 7.83125C78.7995 7.80297 78.8102 7.77609 78.8262 7.7528C78.8429 7.7295 78.8646 7.71043 78.8897 7.69711C78.9148 7.6838 78.9428 7.67663 78.9711 7.67623H80.3977C80.4342 7.67659 80.4696 7.68792 80.4997 7.70884C80.5299 7.72971 80.5531 7.7592 80.5663 7.79349L82.5588 13.1436C82.5721 13.1785 82.5952 13.2086 82.6258 13.2299C82.6566 13.2512 82.6926 13.2625 82.7299 13.2625C82.7668 13.2625 82.8035 13.2512 82.8339 13.2299C82.8644 13.2086 82.888 13.1785 82.9009 13.1436L84.6296 7.80785C84.641 7.77146 84.664 7.73977 84.6948 7.71739C84.7255 7.69498 84.7624 7.68308 84.8004 7.68342H86.2629C86.2909 7.6833 86.3187 7.68991 86.3442 7.7026C86.3693 7.71533 86.3914 7.73383 86.4083 7.75664C86.4252 7.77944 86.4363 7.8059 86.4412 7.83392C86.4463 7.8619 86.4446 7.89067 86.4363 7.91789V7.9131Z" fill="#5C46EC"/>
</g>
<defs>
<clipPath id="clip0_430_8258">
<rect width="91" height="22" fill="white"/>
</clipPath>
</defs>
</svg>
