<svg width="36" height="25" viewBox="0 0 36 25" fill="none" xmlns="http://www.w3.org/2000/svg">
<rect y="0.895752" width="36" height="24" rx="2.26957" fill="#00579F"/>
<path d="M16.1758 17.0474H13.9595L15.3457 8.77075H17.562L16.1758 17.0474Z" fill="white"/>
<path d="M24.2105 8.97322C23.7733 8.80575 23.0799 8.62085 22.2226 8.62085C20.0338 8.62085 18.4926 9.74782 18.4831 11.359C18.4649 12.5478 19.5866 13.2081 20.4256 13.6044C21.283 14.0095 21.5745 14.2738 21.5745 14.6349C21.5658 15.1893 20.8816 15.4449 20.2435 15.4449C19.3587 15.4449 18.8845 15.3132 18.164 15.0047L17.8722 14.8724L17.562 16.7304C18.0818 16.959 19.0395 17.162 20.0338 17.1708C22.3594 17.1708 23.8734 16.0613 23.8913 14.3443C23.9002 13.4021 23.3079 12.6802 22.031 12.0902C21.2558 11.7115 20.781 11.4562 20.781 11.0687C20.7901 10.7165 21.1826 10.3557 22.0576 10.3557C22.7781 10.338 23.3075 10.5052 23.7086 10.6726L23.909 10.7605L24.2105 8.97322Z" fill="white"/>
<path d="M27.1556 14.1153C27.3381 13.6398 28.0405 11.7995 28.0405 11.7995C28.0313 11.8172 28.2227 11.3153 28.3321 11.0071L28.487 11.7203C28.487 11.7203 28.9067 13.7015 28.9978 14.1153C28.6514 14.1153 27.5934 14.1153 27.1556 14.1153ZM29.8914 8.77075H28.1771C27.6484 8.77075 27.2468 8.92031 27.0187 9.45747L23.7266 17.0473H26.0521C26.0521 17.0473 26.435 16.0257 26.5173 15.8057C26.7724 15.8057 29.0347 15.8057 29.3629 15.8057C29.4265 16.0963 29.6273 17.0473 29.6273 17.0473H31.6795L29.8914 8.77075Z" fill="white"/>
<path d="M12.1082 8.77075L9.93767 14.4146L9.70048 13.27C9.2992 11.9492 8.04067 10.5142 6.63623 9.80071L8.62437 17.0386H10.9681L14.4518 8.77075H12.1082Z" fill="white"/>
<path d="M7.9222 8.77075H4.3563L4.31982 8.93798C7.10144 9.62482 8.94365 11.2804 9.70054 13.2703L8.92535 9.46648C8.79773 8.93787 8.40554 8.78819 7.9222 8.77075Z" fill="#FAA61A"/>
</svg>
